<?xml version="1.0" encoding="UTF-8" standalone="no"?>
<!-- Created with Inkscape (http://www.inkscape.org/) -->

<svg
   width="44.627552mm"
   height="31.220884mm"
   viewBox="0 0 44.627552 31.220884"
   version="1.1"
   id="svg5"
   inkscape:version="1.1.1 (3bf5ae0d25, 2021-09-20)"
   sodipodi:docname="LogoCropped.svg"
   xmlns:inkscape="http://www.inkscape.org/namespaces/inkscape"
   xmlns:sodipodi="http://sodipodi.sourceforge.net/DTD/sodipodi-0.dtd"
   xmlns="http://www.w3.org/2000/svg"
   xmlns:svg="http://www.w3.org/2000/svg"
   xmlns:d="https://loading.io/stock/">
  <sodipodi:namedview
     id="namedview7"
     pagecolor="#505050"
     bordercolor="#eeeeee"
     borderopacity="1"
     inkscape:pageshadow="0"
     inkscape:pageopacity="0"
     inkscape:pagecheckerboard="0"
     inkscape:document-units="mm"
     showgrid="false"
     fit-margin-top="0"
     fit-margin-left="0"
     fit-margin-right="0"
     fit-margin-bottom="0"
     inkscape:zoom="0.45611672"
     inkscape:cx="373.80782"
     inkscape:cy="165.52781"
     inkscape:window-width="1366"
     inkscape:window-height="697"
     inkscape:window-x="-8"
     inkscape:window-y="-8"
     inkscape:window-maximized="1"
     inkscape:current-layer="layer1" />
  <defs
     id="defs2" />
  <g
     inkscape:label="Layer 1"
     inkscape:groupmode="layer"
     id="layer1"
     transform="translate(-2.629583,-151.45206)">
    <g
       class="ldl-scale"
       id="g33"
       transform="matrix(0.52916667,0,0,0.52916667,-1.5147585,140.60414)">
      <path
         fill="#f8b26a"
         clip-rule="evenodd"
         fill-rule="evenodd"
         d="m 89.121,62.109 c -0.465,-0.525 -1.272,-1.547 -1.978,-1.694 0.341,2.204 0.379,4.274 -0.654,6.215 a 5.364,5.364 0 0 0 -4.295,-4.694 c 0.853,-0.883 1.716,-1.764 2.321,-2.799 1.331,-2.279 1.458,-5.166 0.489,-7.617 -0.969,-2.451 -2.975,-4.449 -5.377,-5.586 -1.135,-0.537 -2.388,-0.913 -3.302,-1.768 1.699,2.906 1.914,6.612 0.562,9.691 -1.083,2.466 -3.043,4.428 -4.82,6.465 -1.568,1.798 -3.19,3.78 -3.895,6.118 -0.764,2.535 -0.178,5.348 1.164,7.601 1.318,2.213 3.534,3.831 5.98,4.698 4.172,1.48 9.071,0.767 12.634,-1.838 1.775,-1.298 3.243,-3.073 3.899,-5.156 1.022,-3.242 -0.558,-7.185 -2.728,-9.636 z"
         style="fill:#f8b26a"
         id="path25" />
      <path
         fill="#f8b26a"
         clip-rule="evenodd"
         fill-rule="evenodd"
         d="m 29.121,62.109 c -0.465,-0.525 -1.272,-1.547 -1.978,-1.694 0.341,2.204 0.379,4.274 -0.654,6.215 a 5.364,5.364 0 0 0 -4.295,-4.694 c 0.853,-0.883 1.716,-1.764 2.32,-2.799 1.331,-2.279 1.458,-5.166 0.489,-7.617 -0.969,-2.451 -2.975,-4.449 -5.377,-5.586 -1.135,-0.537 -2.388,-0.913 -3.302,-1.768 1.699,2.906 1.914,6.612 0.562,9.691 -1.083,2.466 -3.043,4.428 -4.82,6.465 -1.568,1.798 -3.19,3.78 -3.895,6.118 -0.764,2.535 -0.178,5.348 1.164,7.601 1.318,2.213 3.534,3.831 5.98,4.698 4.172,1.48 9.071,0.767 12.634,-1.838 1.775,-1.298 3.243,-3.073 3.899,-5.156 1.023,-3.242 -0.557,-7.185 -2.727,-9.636 z"
         style="fill:#f8b26a"
         id="path27" />
      <path
         fill="#e15b64"
         clip-rule="evenodd"
         fill-rule="evenodd"
         d="m 65.231,50.461 c -0.777,-0.877 -2.124,-2.584 -3.302,-2.829 0.569,3.68 0.633,7.136 -1.092,10.377 a 8.956,8.956 0 0 0 -7.172,-7.838 c 1.424,-1.475 2.865,-2.945 3.875,-4.673 2.223,-3.805 2.435,-8.626 0.817,-12.719 -1.618,-4.093 -4.968,-7.429 -8.978,-9.327 -1.895,-0.897 -3.987,-1.525 -5.514,-2.952 2.838,4.852 3.196,11.042 0.938,16.182 -1.809,4.117 -5.082,7.395 -8.048,10.795 -2.619,3.002 -5.327,6.311 -6.504,10.215 -1.276,4.234 -0.298,8.93 1.944,12.692 2.201,3.695 5.901,6.397 9.985,7.845 6.966,2.471 15.146,1.281 21.096,-3.07 2.964,-2.167 5.415,-5.131 6.511,-8.609 1.705,-5.413 -0.933,-11.996 -4.556,-16.089 z"
         style="fill:#e15b64"
         id="path29" />
      <metadata
         id="metadata31">
        <d:name
           style="animation-play-state:paused">fire</d:name>
        <d:tags
           style="animation-play-state:paused">fire,flame,inferno,burn,hot,warm,temperature,flare,cook,scold,grill</d:tags>
        <d:license
           style="animation-play-state:paused">by</d:license>
        <d:slug
           style="animation-play-state:paused">me98mq</d:slug>
      </metadata>
    </g>
  </g>
</svg>
