<?xml version="1.0" encoding="utf-8"?><svg viewBox="0 0 70 50" xmlns="http://www.w3.org/2000/svg" width="200px" height="200px" xmlns:xlink="http://www.w3.org/1999/xlink" style="width: 100%; height: 100%; background-size: initial; background-repeat-y: initial; background-repeat-x: initial; background-position-y: initial; background-position-x: initial; background-origin: initial; background-color: initial; background-clip: initial; background-attachment: initial; animation-play-state: paused" ><g class="ldl-scale" style="transform-origin: 50% 50%; transform: rotate(0deg) scale(0.8, 0.8); animation-play-state: paused" ><path fill="#f8b26a" clip-rule="evenodd" fill-rule="evenodd" d="M 70.1 29.6 c -0.5 -0.5 -1.3 -1.5 -2 -1.7 c 0.3 2.2 0.4 4.3 -0.7 6.2 C 67.2 31.8 65.5 29.9 63.2 29.4 c 0.9 -0.9 1.7 -1.8 2.3 -2.8 c 1.3 -2.3 1.5 -5.2 0.5 -7.6 c -1 -2.5 -3 -4.4 -5.4 -5.6 c -1.1 -0.5 -2.4 -0.9 -3.3 -1.8 c 1.7 2.9 1.9 6.6 0.6 9.7 c -1.1 2.5 -3 4.4 -4.8 6.5 c -1.6 1.8 -3.2 3.8 -3.9 6.1 c -0.8 2.5 -0.2 5.3 1.2 7.6 c 1.3 2.2 3.5 3.8 6 4.7 c 4.2 1.5 9.1 0.8 12.6 -1.8 c 1.8 -1.3 3.2 -3.1 3.9 -5.2 c 1 -3.2 -0.6 -7.2 -2.7 -9.6 z" style="fill: rgb(248, 178, 106); animation-play-state: paused" ></path>
<path fill="#f8b26a" clip-rule="evenodd" fill-rule="evenodd" d="M 10.1 29.6 c -0.5 -0.5 -1.3 -1.5 -2 -1.7 c 0.3 2.2 0.4 4.3 -0.7 6.2 C 7.2 31.8 5.5 29.9 3.2 29.4 c 0.9 -0.9 1.7 -1.8 2.3 -2.8 c 1.3 -2.3 1.5 -5.2 0.5 -7.6 c -1 -2.5 -3 -4.4 -5.4 -5.6 c -1.1 -0.5 -2.4 -0.9 -3.3 -1.8 c 1.7 2.9 1.9 6.6 0.6 9.7 c -1.1 2.5 -3 4.4 -4.8 6.5 c -1.6 1.8 -3.2 3.8 -3.9 6.1 c -0.8 2.5 -0.2 5.3 1.2 7.6 c 1.3 2.2 3.5 3.8 6 4.7 c 4.2 1.5 9.1 0.8 12.6 -1.8 c 1.8 -1.3 3.2 -3.1 3.9 -5.2 c 1 -3.2 -0.6 -7.2 -2.7 -9.6 z" style="fill: rgb(248, 178, 106); animation-play-state: paused" ></path>
<path fill="#e15b64" clip-rule="evenodd" fill-rule="evenodd" d="M 46.2 18 c -0.8 -0.9 -2.1 -2.6 -3.3 -2.8 c 0.6 3.7 0.6 7.1 -1.1 10.4 C 41.4 21.6 38.5 18.4 34.7 17.7 c 1.4 -1.5 2.9 -2.9 3.9 -4.7 c 2.2 -3.8 2.4 -8.6 0.8 -12.7 s -5 -7.4 -9 -9.3 c -1.9 -0.9 -4 -1.5 -5.5 -3 c 2.8 4.9 3.2 11 0.9 16.2 c -1.8 4.1 -5.1 7.4 -8 10.8 c -2.6 3 -5.3 6.3 -6.5 10.2 c -1.3 4.2 -0.3 8.9 1.9 12.7 c 2.2 3.7 5.9 6.4 10 7.8 c 7 2.5 15.1 1.3 21.1 -3.1 c 3 -2.2 5.4 -5.1 6.5 -8.6 c 1.7 -5.4 -0.9 -12 -4.6 -16.1 z" style="fill: rgb(225, 91, 100); animation-play-state: paused" ></path>
<metadata xmlns:d="https://loading.io/stock/" style="animation-play-state:paused" ><d:name style="animation-play-state:paused" >fire</d:name>


<d:tags style="animation-play-state:paused" >fire,flame,inferno,burn,hot,warm,temperature,flare,cook,scold,grill</d:tags>


<d:license style="animation-play-state:paused" >by</d:license>


<d:slug style="animation-play-state:paused" >me98mq</d:slug></metadata></g><!-- generated by https://loading.io/ --></svg>
